<?xml version="1.0" encoding="UTF-8" standalone="no"?>
<!DOCTYPE svg PUBLIC "-//W3C//DTD SVG 1.1//EN"
 "http://www.w3.org/Graphics/SVG/1.1/DTD/svg11.dtd">
<!-- Generated by graphviz version 9.0.0 (20230911.1827)
 -->
<!-- Title: finite_state_machine Pages: 1 -->
<svg width="480pt" height="360pt"
 viewBox="0.00 0.00 479.82 360.00" xmlns="http://www.w3.org/2000/svg" xmlns:xlink="http://www.w3.org/1999/xlink">
<g id="graph0" class="graph" transform="scale(0.272285 0.272285) rotate(0) translate(4 1318.14)">
<title>finite_state_machine</title>
<polygon fill="white" stroke="none" points="-4,4 -4,-1318.14 1758.2,-1318.14 1758.2,4 -4,4"/>
<!-- Float_0 -->
<g id="node1" class="node">
<title>Float_0</title>
<ellipse fill="none" stroke="black" cx="259.92" cy="-1225.67" rx="39.09" ry="18"/>
<text text-anchor="middle" x="259.92" y="-1220.24" font-family="Times New Roman,serif" font-size="14.00">Float_0</text>
</g>
<!-- Float_1 -->
<g id="node2" class="node">
<title>Float_1</title>
<ellipse fill="none" stroke="black" cx="553.09" cy="-1243.67" rx="39.09" ry="18"/>
<text text-anchor="middle" x="553.09" y="-1238.24" font-family="Times New Roman,serif" font-size="14.00">Float_1</text>
</g>
<!-- Float_0&#45;&gt;Float_1 -->
<g id="edge5" class="edge">
<title>Float_0&#45;&gt;Float_1</title>
<path fill="none" stroke="black" d="M298.98,-1228.02C351.19,-1231.25 445.07,-1237.05 502.66,-1240.61"/>
<polygon fill="black" stroke="black" points="502.31,-1244.09 512.5,-1241.22 502.74,-1237.11 502.31,-1244.09"/>
<text text-anchor="middle" x="404.58" y="-1239.12" font-family="Times New Roman,serif" font-size="14.00">[1&#45;9]</text>
</g>
<!-- Float_2 -->
<g id="node3" class="node">
<title>Float_2</title>
<ellipse fill="none" stroke="black" cx="553.09" cy="-1189.67" rx="39.09" ry="18"/>
<text text-anchor="middle" x="553.09" y="-1184.24" font-family="Times New Roman,serif" font-size="14.00">Float_2</text>
</g>
<!-- Float_0&#45;&gt;Float_2 -->
<g id="edge16" class="edge">
<title>Float_0&#45;&gt;Float_2</title>
<path fill="none" stroke="black" d="M297.68,-1220.12C315.45,-1217.51 337.11,-1214.42 356.58,-1211.92 406.43,-1205.5 463.56,-1199.11 503.13,-1194.83"/>
<polygon fill="black" stroke="black" points="503.5,-1198.31 513.07,-1193.77 502.75,-1191.35 503.5,-1198.31"/>
<text text-anchor="middle" x="404.58" y="-1214.12" font-family="Times New Roman,serif" font-size="14.00">0</text>
</g>
<!-- Float_1&#45;&gt;Float_1 -->
<g id="edge6" class="edge">
<title>Float_1&#45;&gt;Float_1</title>
<path fill="none" stroke="black" d="M529.46,-1258.08C521.21,-1268.83 529.09,-1279.67 553.09,-1279.67 568.46,-1279.67 577.22,-1275.22 579.36,-1269.2"/>
<polygon fill="black" stroke="black" points="582.79,-1268.47 577.07,-1259.55 575.98,-1270.09 582.79,-1268.47"/>
<text text-anchor="middle" x="553.09" y="-1282.12" font-family="Times New Roman,serif" font-size="14.00">[0&#45;9]</text>
</g>
<!-- Float_3 -->
<g id="node4" class="node">
<title>Float_3</title>
<ellipse fill="none" stroke="black" cx="857.82" cy="-1216.67" rx="39.09" ry="18"/>
<text text-anchor="middle" x="857.82" y="-1211.24" font-family="Times New Roman,serif" font-size="14.00">Float_3</text>
</g>
<!-- Float_1&#45;&gt;Float_3 -->
<g id="edge7" class="edge">
<title>Float_1&#45;&gt;Float_3</title>
<path fill="none" stroke="black" d="M591.82,-1240.3C646.47,-1235.43 747.68,-1226.4 807.97,-1221.02"/>
<polygon fill="black" stroke="black" points="807.93,-1224.54 817.58,-1220.16 807.31,-1217.57 807.93,-1224.54"/>
<text text-anchor="middle" x="695.97" y="-1236.12" font-family="Times New Roman,serif" font-size="14.00">&#39;.&#39;</text>
</g>
<!-- Float_2&#45;&gt;Float_3 -->
<g id="edge8" class="edge">
<title>Float_2&#45;&gt;Float_3</title>
<path fill="none" stroke="black" d="M591.82,-1193.03C646.47,-1197.9 747.68,-1206.93 807.97,-1212.31"/>
<polygon fill="black" stroke="black" points="807.31,-1215.76 817.58,-1213.17 807.93,-1208.79 807.31,-1215.76"/>
<text text-anchor="middle" x="695.97" y="-1207.12" font-family="Times New Roman,serif" font-size="14.00">[0&#45;9]</text>
</g>
<!-- Float_4 -->
<g id="node5" class="node">
<title>Float_4</title>
<ellipse fill="none" stroke="black" cx="1061.38" cy="-1216.67" rx="39.09" ry="18"/>
<text text-anchor="middle" x="1061.38" y="-1211.24" font-family="Times New Roman,serif" font-size="14.00">Float_4</text>
</g>
<!-- Float_3&#45;&gt;Float_4 -->
<g id="edge9" class="edge">
<title>Float_3&#45;&gt;Float_4</title>
<path fill="none" stroke="black" d="M897.21,-1216.67C929.32,-1216.67 975.39,-1216.67 1010.38,-1216.67"/>
<polygon fill="black" stroke="black" points="1010.28,-1220.17 1020.28,-1216.67 1010.28,-1213.17 1010.28,-1220.17"/>
<text text-anchor="middle" x="990.79" y="-1219.12" font-family="Times New Roman,serif" font-size="14.00">[0&#45;9]</text>
</g>
<!-- Float_4&#45;&gt;Float_4 -->
<g id="edge10" class="edge">
<title>Float_4&#45;&gt;Float_4</title>
<path fill="none" stroke="black" d="M1048.78,-1234.08C1046.42,-1243.75 1050.62,-1252.67 1061.38,-1252.67 1067.59,-1252.67 1071.62,-1249.69 1073.46,-1245.3"/>
<polygon fill="black" stroke="black" points="1076.94,-1245.74 1073.91,-1235.59 1069.95,-1245.41 1076.94,-1245.74"/>
<text text-anchor="middle" x="1061.38" y="-1255.12" font-family="Times New Roman,serif" font-size="14.00">e/E</text>
</g>
<!-- Float_5 -->
<g id="node6" class="node">
<title>Float_5</title>
<ellipse fill="none" stroke="black" cx="1202.55" cy="-1216.67" rx="39.09" ry="18"/>
<text text-anchor="middle" x="1202.55" y="-1211.24" font-family="Times New Roman,serif" font-size="14.00">Float_5</text>
</g>
<!-- Float_4&#45;&gt;Float_5 -->
<g id="edge11" class="edge">
<title>Float_4&#45;&gt;Float_5</title>
<path fill="none" stroke="black" d="M1100.78,-1216.67C1116.6,-1216.67 1135.13,-1216.67 1151.96,-1216.67"/>
<polygon fill="black" stroke="black" points="1151.77,-1220.17 1161.77,-1216.67 1151.77,-1213.17 1151.77,-1220.17"/>
<text text-anchor="middle" x="1131.97" y="-1219.12" font-family="Times New Roman,serif" font-size="14.00">[0&#45;9]</text>
</g>
<!-- Float_6 -->
<g id="node7" class="node">
<title>Float_6</title>
<ellipse fill="none" stroke="black" cx="1333.23" cy="-1252.67" rx="39.09" ry="18"/>
<text text-anchor="middle" x="1333.23" y="-1247.24" font-family="Times New Roman,serif" font-size="14.00">Float_6</text>
</g>
<!-- Float_5&#45;&gt;Float_6 -->
<g id="edge12" class="edge">
<title>Float_5&#45;&gt;Float_6</title>
<path fill="none" stroke="black" d="M1236.69,-1225.94C1252.45,-1230.35 1271.51,-1235.68 1288.44,-1240.41"/>
<polygon fill="black" stroke="black" points="1287.17,-1243.69 1297.75,-1243.02 1289.06,-1236.95 1287.17,-1243.69"/>
<text text-anchor="middle" x="1267.89" y="-1239.12" font-family="Times New Roman,serif" font-size="14.00">+/&#45;</text>
</g>
<!-- Float_7 -->
<g id="node8" class="node">
<title>Float_7</title>
<ellipse fill="none" stroke="black" cx="1474.41" cy="-1216.67" rx="39.09" ry="18"/>
<text text-anchor="middle" x="1474.41" y="-1211.24" font-family="Times New Roman,serif" font-size="14.00">Float_7</text>
</g>
<!-- Float_5&#45;&gt;Float_7 -->
<g id="edge13" class="edge">
<title>Float_5&#45;&gt;Float_7</title>
<path fill="none" stroke="black" d="M1241.42,-1213.21C1257.64,-1211.9 1276.81,-1210.56 1294.14,-1209.92 1328.86,-1208.62 1337.59,-1208.76 1372.32,-1209.92 1389.31,-1210.48 1407.89,-1211.58 1424.43,-1212.74"/>
<polygon fill="black" stroke="black" points="1423.78,-1216.2 1434,-1213.43 1424.28,-1209.22 1423.78,-1216.2"/>
<text text-anchor="middle" x="1333.23" y="-1212.12" font-family="Times New Roman,serif" font-size="14.00">[0&#45;9]</text>
</g>
<!-- Float_6&#45;&gt;Float_7 -->
<g id="edge15" class="edge">
<title>Float_6&#45;&gt;Float_7</title>
<path fill="none" stroke="black" d="M1367.92,-1243.95C1386.16,-1239.23 1408.94,-1233.34 1428.65,-1228.24"/>
<polygon fill="black" stroke="black" points="1429.27,-1231.7 1438.08,-1225.8 1427.52,-1224.92 1429.27,-1231.7"/>
<text text-anchor="middle" x="1403.82" y="-1240.12" font-family="Times New Roman,serif" font-size="14.00">[0&#45;9]</text>
</g>
<!-- 9F -->
<g id="node12" class="node">
<title>9F</title>
<ellipse fill="none" stroke="black" cx="1656.72" cy="-1216.67" rx="93.48" ry="93.48"/>
<ellipse fill="none" stroke="black" cx="1656.72" cy="-1216.67" rx="97.48" ry="97.48"/>
<text text-anchor="middle" x="1656.72" y="-1211.24" font-family="Times New Roman,serif" font-size="14.00">Float_8 (accept Float)</text>
</g>
<!-- Float_7&#45;&gt;9F -->
<g id="edge14" class="edge">
<title>Float_7&#45;&gt;9F</title>
<path fill="none" stroke="black" d="M1513.65,-1216.67C1523.94,-1216.67 1535.59,-1216.67 1547.7,-1216.67"/>
<polygon fill="black" stroke="black" points="1547.4,-1220.17 1557.4,-1216.67 1547.4,-1213.17 1547.4,-1220.17"/>
<text text-anchor="middle" x="1536.37" y="-1219.12" font-family="Times New Roman,serif" font-size="14.00">&#39; &#39;</text>
</g>
<!-- Identi_0 -->
<g id="node9" class="node">
<title>Identi_0</title>
<ellipse fill="none" stroke="black" cx="259.92" cy="-587.67" rx="41.08" ry="18"/>
<text text-anchor="middle" x="259.92" y="-582.24" font-family="Times New Roman,serif" font-size="14.00">Identi_0</text>
</g>
<!-- Identi_1 -->
<g id="node10" class="node">
<title>Identi_1</title>
<ellipse fill="none" stroke="black" cx="553.09" cy="-635.67" rx="41.08" ry="18"/>
<text text-anchor="middle" x="553.09" y="-630.24" font-family="Times New Roman,serif" font-size="14.00">Identi_1</text>
</g>
<!-- Identi_0&#45;&gt;Identi_1 -->
<g id="edge17" class="edge">
<title>Identi_0&#45;&gt;Identi_1</title>
<path fill="none" stroke="black" d="M298.98,-593.94C351.19,-602.55 445.07,-618.02 502.66,-627.52"/>
<polygon fill="black" stroke="black" points="502.09,-630.97 512.52,-629.14 503.22,-624.06 502.09,-630.97"/>
<text text-anchor="middle" x="404.58" y="-621.12" font-family="Times New Roman,serif" font-size="14.00">[a&#45;z, A&#45;Z]</text>
</g>
<!-- Identi_2 -->
<g id="node13" class="node">
<title>Identi_2</title>
<ellipse fill="none" stroke="black" cx="857.82" cy="-651.67" rx="97.47" ry="97.47"/>
<ellipse fill="none" stroke="black" cx="857.82" cy="-651.67" rx="101.47" ry="101.47"/>
<text text-anchor="middle" x="857.82" y="-646.24" font-family="Times New Roman,serif" font-size="14.00">Identi_2 (accept Identi)</text>
</g>
<!-- Identi_1&#45;&gt;Identi_2 -->
<g id="edge18" class="edge">
<title>Identi_1&#45;&gt;Identi_2</title>
<path fill="none" stroke="black" d="M594.29,-637.79C632.57,-639.81 692,-642.95 744.64,-645.74"/>
<polygon fill="black" stroke="black" points="744.43,-649.23 754.6,-646.26 744.8,-642.24 744.43,-649.23"/>
<text text-anchor="middle" x="695.97" y="-647.12" font-family="Times New Roman,serif" font-size="14.00">[a&#45;z, A&#45;Z, 0&#45;9] </text>
</g>
<!-- IntU_3 -->
<g id="node11" class="node">
<title>IntU_3</title>
<ellipse fill="none" stroke="black" cx="857.82" cy="-354.67" rx="82" ry="82"/>
<ellipse fill="none" stroke="black" cx="857.82" cy="-354.67" rx="86" ry="86"/>
<text text-anchor="middle" x="857.82" y="-349.24" font-family="Times New Roman,serif" font-size="14.00">IntU_3 (accept Int)</text>
</g>
<!-- IntU_2 -->
<g id="node14" class="node">
<title>IntU_2</title>
<ellipse fill="none" stroke="black" cx="857.82" cy="-495.67" rx="36.59" ry="36.59"/>
<text text-anchor="middle" x="857.82" y="-490.24" font-family="Times New Roman,serif" font-size="14.00">IntU_2</text>
</g>
<!-- IntU_0 -->
<g id="node15" class="node">
<title>IntU_0</title>
<ellipse fill="none" stroke="black" cx="259.92" cy="-514.67" rx="36.59" ry="36.59"/>
<text text-anchor="middle" x="259.92" y="-509.24" font-family="Times New Roman,serif" font-size="14.00">IntU_0</text>
</g>
<!-- IntU_1 -->
<g id="node16" class="node">
<title>IntU_1</title>
<ellipse fill="none" stroke="black" cx="553.09" cy="-495.67" rx="36.59" ry="36.59"/>
<text text-anchor="middle" x="553.09" y="-490.24" font-family="Times New Roman,serif" font-size="14.00">IntU_1</text>
</g>
<!-- IntU_0&#45;&gt;IntU_1 -->
<g id="edge1" class="edge">
<title>IntU_0&#45;&gt;IntU_1</title>
<path fill="none" stroke="black" d="M296.91,-512.32C349.3,-508.9 446.61,-502.55 504.75,-498.75"/>
<polygon fill="black" stroke="black" points="504.92,-502.25 514.67,-498.11 504.46,-495.27 504.92,-502.25"/>
<text text-anchor="middle" x="404.58" y="-510.12" font-family="Times New Roman,serif" font-size="14.00">[0&#45;9]</text>
</g>
<!-- IntU_1&#45;&gt;IntU_3 -->
<g id="edge3" class="edge">
<title>IntU_1&#45;&gt;IntU_3</title>
<path fill="none" stroke="black" d="M586.77,-480.44C629.99,-460.31 707.79,-424.08 768.82,-395.65"/>
<polygon fill="black" stroke="black" points="770.27,-398.84 777.86,-391.44 767.32,-392.49 770.27,-398.84"/>
<text text-anchor="middle" x="695.97" y="-449.12" font-family="Times New Roman,serif" font-size="14.00"> &#39; &#39;</text>
</g>
<!-- IntU_1&#45;&gt;IntU_2 -->
<g id="edge4" class="edge">
<title>IntU_1&#45;&gt;IntU_2</title>
<path fill="none" stroke="black" d="M590.01,-495.67C644.74,-495.67 749.06,-495.67 809.78,-495.67"/>
<polygon fill="black" stroke="black" points="809.44,-499.17 819.44,-495.67 809.44,-492.17 809.44,-499.17"/>
<text text-anchor="middle" x="695.97" y="-498.12" font-family="Times New Roman,serif" font-size="14.00">else</text>
</g>
<!-- IntU_1&#45;&gt;IntU_1 -->
<g id="edge2" class="edge">
<title>IntU_1&#45;&gt;IntU_1</title>
<path fill="none" stroke="black" d="M527.49,-522.35C522.93,-536.92 531.46,-550.26 553.09,-550.26 568.8,-550.26 577.61,-543.22 579.49,-533.78"/>
<polygon fill="black" stroke="black" points="582.99,-533.59 578.79,-523.86 576.01,-534.08 582.99,-533.59"/>
<text text-anchor="middle" x="553.09" y="-552.71" font-family="Times New Roman,serif" font-size="14.00">[0&#45;9]</text>
</g>
<!-- SLC -->
<g id="node17" class="node">
<title>SLC</title>
<ellipse fill="none" stroke="black" cx="259.92" cy="-78.67" rx="78.67" ry="78.67"/>
<text text-anchor="middle" x="259.92" y="-81.12" font-family="Times New Roman,serif" font-size="14.00">Single Line</text>
<text text-anchor="middle" x="259.92" y="-65.37" font-family="Times New Roman,serif" font-size="14.00">Comment/Macro</text>
</g>
<!-- ACC_SLC -->
<g id="node22" class="node">
<title>ACC_SLC</title>
<ellipse fill="none" stroke="black" cx="553.09" cy="-210.67" rx="78.51" ry="78.51"/>
<ellipse fill="none" stroke="black" cx="553.09" cy="-210.67" rx="82.51" ry="82.51"/>
<text text-anchor="middle" x="553.09" y="-205.24" font-family="Times New Roman,serif" font-size="14.00">accept SLC/MAC</text>
</g>
<!-- SLC&#45;&gt;ACC_SLC -->
<g id="edge19" class="edge">
<title>SLC&#45;&gt;ACC_SLC</title>
<path fill="none" stroke="black" d="M332.14,-110.96C372.9,-129.43 424.27,-152.72 467.12,-172.15"/>
<polygon fill="black" stroke="black" points="465.6,-175.3 476.16,-176.24 468.49,-168.92 465.6,-175.3"/>
<text text-anchor="middle" x="404.58" y="-182.87" font-family="Times New Roman,serif" font-size="14.00">&#39;</text>
<text text-anchor="middle" x="404.58" y="-167.12" font-family="Times New Roman,serif" font-size="14.00">&#39; or EOF</text>
</g>
<!-- MLC -->
<g id="node18" class="node">
<title>MLC</title>
<ellipse fill="none" stroke="black" cx="259.92" cy="-1138.67" rx="51.09" ry="51.09"/>
<text text-anchor="middle" x="259.92" y="-1141.12" font-family="Times New Roman,serif" font-size="14.00">Multi Line</text>
<text text-anchor="middle" x="259.92" y="-1125.37" font-family="Times New Roman,serif" font-size="14.00">Comment</text>
</g>
<!-- ACC_MLC -->
<g id="node23" class="node">
<title>ACC_MLC</title>
<ellipse fill="none" stroke="black" cx="553.09" cy="-1072.67" rx="57.55" ry="57.55"/>
<ellipse fill="none" stroke="black" cx="553.09" cy="-1072.67" rx="61.55" ry="61.55"/>
<text text-anchor="middle" x="553.09" y="-1067.24" font-family="Times New Roman,serif" font-size="14.00">accept MLC</text>
</g>
<!-- MLC&#45;&gt;ACC_MLC -->
<g id="edge20" class="edge">
<title>MLC&#45;&gt;ACC_MLC</title>
<path fill="none" stroke="black" d="M309.98,-1127.54C357.04,-1116.88 428.58,-1100.66 481.71,-1088.62"/>
<polygon fill="black" stroke="black" points="482.3,-1092.07 491.28,-1086.45 480.75,-1085.25 482.3,-1092.07"/>
<text text-anchor="middle" x="404.58" y="-1117.12" font-family="Times New Roman,serif" font-size="14.00">&#39;*/&#39;</text>
</g>
<!-- STR -->
<g id="node19" class="node">
<title>STR</title>
<ellipse fill="none" stroke="black" cx="259.92" cy="-656.67" rx="32.6" ry="32.6"/>
<text text-anchor="middle" x="259.92" y="-651.24" font-family="Times New Roman,serif" font-size="14.00">String</text>
</g>
<!-- ACC_STR -->
<g id="node24" class="node">
<title>ACC_STR</title>
<ellipse fill="none" stroke="black" cx="553.09" cy="-850.67" rx="55.55" ry="55.55"/>
<ellipse fill="none" stroke="black" cx="553.09" cy="-850.67" rx="59.55" ry="59.55"/>
<text text-anchor="middle" x="553.09" y="-845.24" font-family="Times New Roman,serif" font-size="14.00">accept STR</text>
</g>
<!-- STR&#45;&gt;ACC_STR -->
<g id="edge21" class="edge">
<title>STR&#45;&gt;ACC_STR</title>
<path fill="none" stroke="black" d="M289.84,-670.75C304.68,-678.27 322.89,-687.96 338.58,-697.67 394.05,-731.96 454.17,-775.68 496.44,-807.6"/>
<polygon fill="black" stroke="black" points="494.16,-810.26 504.24,-813.51 498.39,-804.68 494.16,-810.26"/>
<text text-anchor="middle" x="404.58" y="-776.12" font-family="Times New Roman,serif" font-size="14.00">Non&#45;escaped &quot;&quot;&quot;</text>
</g>
<!-- CHR -->
<g id="node20" class="node">
<title>CHR</title>
<ellipse fill="none" stroke="black" cx="259.92" cy="-413.67" rx="46.57" ry="46.57"/>
<text text-anchor="middle" x="259.92" y="-408.24" font-family="Times New Roman,serif" font-size="14.00">Character</text>
</g>
<!-- ACC_CHR -->
<g id="node25" class="node">
<title>ACC_CHR</title>
<ellipse fill="none" stroke="black" cx="553.09" cy="-376.67" rx="57.05" ry="57.05"/>
<ellipse fill="none" stroke="black" cx="553.09" cy="-376.67" rx="61.05" ry="61.05"/>
<text text-anchor="middle" x="553.09" y="-371.24" font-family="Times New Roman,serif" font-size="14.00">accept CHR</text>
</g>
<!-- CHR&#45;&gt;ACC_CHR -->
<g id="edge22" class="edge">
<title>CHR&#45;&gt;ACC_CHR</title>
<path fill="none" stroke="black" d="M306.41,-407.88C353.08,-401.95 426.33,-392.65 480.72,-385.73"/>
<polygon fill="black" stroke="black" points="481.04,-389.22 490.52,-384.49 480.16,-382.28 481.04,-389.22"/>
<text text-anchor="middle" x="404.58" y="-403.12" font-family="Times New Roman,serif" font-size="14.00">Non&#45;escaped &#39;&#39;&#39;</text>
</g>
<!-- MAC -->
<g id="node21" class="node">
<title>MAC</title>
<ellipse fill="none" stroke="black" cx="259.92" cy="-210.67" rx="35.1" ry="35.1"/>
<text text-anchor="middle" x="259.92" y="-205.24" font-family="Times New Roman,serif" font-size="14.00">Macro</text>
</g>
<!-- MAC&#45;&gt;ACC_SLC -->
<g id="edge23" class="edge">
<title>MAC&#45;&gt;ACC_SLC</title>
<path fill="none" stroke="black" d="M295.46,-210.67C335.49,-210.67 403.08,-210.67 458.85,-210.67"/>
<polygon fill="black" stroke="black" points="458.68,-214.17 468.68,-210.67 458.68,-207.17 458.68,-214.17"/>
<text text-anchor="middle" x="404.58" y="-228.87" font-family="Times New Roman,serif" font-size="14.00">&#39;</text>
<text text-anchor="middle" x="404.58" y="-213.12" font-family="Times New Roman,serif" font-size="14.00">&#39; or EOF</text>
</g>
<!-- 0 -->
<g id="node28" class="node">
<title>0</title>
<ellipse fill="none" stroke="black" cx="22" cy="-678.67" rx="18" ry="18"/>
<ellipse fill="none" stroke="black" cx="22" cy="-678.67" rx="22" ry="22"/>
<text text-anchor="middle" x="22" y="-673.24" font-family="Times New Roman,serif" font-size="14.00">0</text>
</g>
<!-- ACC_SLC&#45;&gt;0 -->
<g id="edge31" class="edge">
<title>ACC_SLC&#45;&gt;0</title>
<path fill="none" stroke="black" d="M475.25,-238.75C467.63,-241.21 459.98,-243.57 452.58,-245.67 319.64,-283.41 89.48,-310.86 62,-344.67 25.03,-390.14 22.06,-569.7 22.5,-645.07"/>
<polygon fill="black" stroke="black" points="19,-644.76 22.58,-654.73 26,-644.7 19,-644.76"/>
<text text-anchor="middle" x="259.92" y="-307.12" font-family="Times New Roman,serif" font-size="14.00">Exit SLC/MAC</text>
</g>
<!-- ACC_MLC&#45;&gt;0 -->
<g id="edge32" class="edge">
<title>ACC_MLC&#45;&gt;0</title>
<path fill="none" stroke="black" d="M491.3,-1067.91C372.1,-1057.19 114.71,-1026.66 62,-959.67 32.25,-921.86 25.2,-778.14 23.52,-712.15"/>
<polygon fill="black" stroke="black" points="27.02,-712.21 23.3,-702.29 20.03,-712.37 27.02,-712.21"/>
<text text-anchor="middle" x="259.92" y="-1051.12" font-family="Times New Roman,serif" font-size="14.00">Exit MLC</text>
</g>
<!-- ACC_STR&#45;&gt;0 -->
<g id="edge33" class="edge">
<title>ACC_STR&#45;&gt;0</title>
<path fill="none" stroke="black" d="M505.75,-887.34C464.55,-917.45 401.29,-957.78 338.58,-974.67 271.06,-992.85 249.6,-989.42 181.25,-974.67 124.38,-962.39 97.33,-966.89 62,-920.67 37.46,-888.56 27.87,-770.9 24.55,-712.3"/>
<polygon fill="black" stroke="black" points="28.06,-712.39 24.03,-702.59 21.07,-712.76 28.06,-712.39"/>
<text text-anchor="middle" x="259.92" y="-989.12" font-family="Times New Roman,serif" font-size="14.00">Exit STR</text>
</g>
<!-- ACC_CHR&#45;&gt;0 -->
<g id="edge34" class="edge">
<title>ACC_CHR&#45;&gt;0</title>
<path fill="none" stroke="black" d="M494.93,-356.6C420.44,-333.71 287.2,-304.04 181.25,-341.92 116.72,-364.98 96.23,-380.29 62,-439.67 42.15,-474.09 30.35,-588.01 25.53,-645.24"/>
<polygon fill="black" stroke="black" points="22.06,-644.79 24.74,-655.04 29.04,-645.35 22.06,-644.79"/>
<text text-anchor="middle" x="259.92" y="-345.12" font-family="Times New Roman,serif" font-size="14.00">Exit CHR</text>
</g>
<!-- ACC_WS -->
<g id="node26" class="node">
<title>ACC_WS</title>
<ellipse fill="none" stroke="black" cx="259.92" cy="-900.67" rx="60.54" ry="60.54"/>
<ellipse fill="none" stroke="black" cx="259.92" cy="-900.67" rx="64.54" ry="64.54"/>
<text text-anchor="middle" x="259.92" y="-895.24" font-family="Times New Roman,serif" font-size="14.00">accept Space</text>
</g>
<!-- ACC_WS&#45;&gt;0 -->
<g id="edge35" class="edge">
<title>ACC_WS&#45;&gt;0</title>
<path fill="none" stroke="black" d="M206.33,-864.24C192.61,-855.43 177.63,-846.4 163.25,-838.92 120.15,-816.48 95.13,-833.21 62,-797.67 40.15,-774.22 30.53,-738.32 26.3,-712.08"/>
<polygon fill="black" stroke="black" points="29.78,-711.69 24.93,-702.28 22.85,-712.67 29.78,-711.69"/>
<text text-anchor="middle" x="112.62" y="-841.12" font-family="Times New Roman,serif" font-size="14.00">Exit Space</text>
</g>
<!-- ACC_EL -->
<g id="node27" class="node">
<title>ACC_EL</title>
<ellipse fill="none" stroke="black" cx="259.92" cy="-762.67" rx="51.56" ry="51.56"/>
<ellipse fill="none" stroke="black" cx="259.92" cy="-762.67" rx="55.56" ry="55.56"/>
<text text-anchor="middle" x="259.92" y="-757.24" font-family="Times New Roman,serif" font-size="14.00">accept EL)</text>
</g>
<!-- ACC_EL&#45;&gt;0 -->
<g id="edge36" class="edge">
<title>ACC_EL&#45;&gt;0</title>
<path fill="none" stroke="black" d="M211.37,-734.8C196.35,-726.86 179.44,-718.79 163.25,-712.92 119.94,-697.21 106.56,-702.39 62,-690.67 59.4,-689.98 56.71,-689.24 54.02,-688.46"/>
<polygon fill="black" stroke="black" points="55.18,-685.16 44.6,-685.65 53.18,-691.86 55.18,-685.16"/>
<text text-anchor="middle" x="112.62" y="-715.12" font-family="Times New Roman,serif" font-size="14.00">Exit EL</text>
</g>
<!-- 0&#45;&gt;Float_0 -->
<g id="edge38" class="edge">
<title>0&#45;&gt;Float_0</title>
<path fill="none" stroke="black" d="M23.54,-701.01C25.86,-789.07 36.02,-1109.11 62,-1145.67 95.9,-1193.36 163.35,-1212.66 209.78,-1220.45"/>
<polygon fill="black" stroke="black" points="209.19,-1223.9 219.61,-1221.96 210.26,-1216.98 209.19,-1223.9"/>
<text text-anchor="middle" x="112.62" y="-1211.12" font-family="Times New Roman,serif" font-size="14.00">Float Start</text>
</g>
<!-- 0&#45;&gt;Identi_0 -->
<g id="edge39" class="edge">
<title>0&#45;&gt;Identi_0</title>
<path fill="none" stroke="black" d="M38.23,-663.35C45.03,-657.21 53.43,-650.52 62,-645.92 109.22,-620.54 168.9,-604.88 210.12,-596.27"/>
<polygon fill="black" stroke="black" points="210.64,-599.74 219.75,-594.33 209.25,-592.88 210.64,-599.74"/>
<text text-anchor="middle" x="112.62" y="-648.12" font-family="Times New Roman,serif" font-size="14.00">Identifier Start</text>
</g>
<!-- 0&#45;&gt;IntU_0 -->
<g id="edge37" class="edge">
<title>0&#45;&gt;IntU_0</title>
<path fill="none" stroke="black" d="M27.14,-657.16C32.12,-636.78 42.37,-606.59 62,-587.92 103.48,-548.45 168.13,-529.84 211.94,-521.35"/>
<polygon fill="black" stroke="black" points="212.45,-524.82 221.66,-519.58 211.2,-517.93 212.45,-524.82"/>
<text text-anchor="middle" x="112.62" y="-590.12" font-family="Times New Roman,serif" font-size="14.00">Unsigned Int Start</text>
</g>
<!-- 0&#45;&gt;SLC -->
<g id="edge24" class="edge">
<title>0&#45;&gt;SLC</title>
<path fill="none" stroke="black" d="M23.55,-656.24C25.96,-565.51 36.54,-228.64 62,-188.92 87.57,-149.01 132.95,-122.2 173.7,-105.02"/>
<polygon fill="black" stroke="black" points="174.87,-108.32 182.82,-101.32 172.24,-101.84 174.87,-108.32"/>
<text text-anchor="middle" x="112.62" y="-192.12" font-family="Times New Roman,serif" font-size="14.00">&#39;//&#39;</text>
</g>
<!-- 0&#45;&gt;MLC -->
<g id="edge25" class="edge">
<title>0&#45;&gt;MLC</title>
<path fill="none" stroke="black" d="M23.86,-700.98C27.08,-779.31 39.36,-1038.63 62,-1067.67 94.17,-1108.92 152.44,-1126.23 197.27,-1133.48"/>
<polygon fill="black" stroke="black" points="196.75,-1136.94 207.15,-1134.93 197.77,-1130.01 196.75,-1136.94"/>
<text text-anchor="middle" x="112.62" y="-1128.12" font-family="Times New Roman,serif" font-size="14.00">&#39;/*&#39;</text>
</g>
<!-- 0&#45;&gt;STR -->
<g id="edge26" class="edge">
<title>0&#45;&gt;STR</title>
<path fill="none" stroke="black" d="M44.05,-676.63C49.86,-676.07 56.18,-675.47 62,-674.92 114.93,-669.92 175.87,-664.29 215.77,-660.62"/>
<polygon fill="black" stroke="black" points="216.05,-664.11 225.69,-659.71 215.41,-657.14 216.05,-664.11"/>
<text text-anchor="middle" x="112.62" y="-677.12" font-family="Times New Roman,serif" font-size="14.00">&quot;&quot;&quot;</text>
</g>
<!-- 0&#45;&gt;CHR -->
<g id="edge27" class="edge">
<title>0&#45;&gt;CHR</title>
<path fill="none" stroke="black" d="M22.6,-656.43C23.11,-622.22 28.76,-556.2 62,-513.92 97.48,-468.78 158.78,-442.15 203.58,-427.82"/>
<polygon fill="black" stroke="black" points="204.32,-431.26 212.85,-424.97 202.26,-424.57 204.32,-431.26"/>
<text text-anchor="middle" x="112.62" y="-516.12" font-family="Times New Roman,serif" font-size="14.00">&#39;&#39;&#39;</text>
</g>
<!-- 0&#45;&gt;MAC -->
<g id="edge28" class="edge">
<title>0&#45;&gt;MAC</title>
<path fill="none" stroke="black" d="M23.51,-656.4C25.63,-573.01 34.91,-282.33 62,-251.92 99.51,-209.81 168.03,-204.41 213.52,-206.16"/>
<polygon fill="black" stroke="black" points="213.16,-209.64 223.33,-206.68 213.53,-202.65 213.16,-209.64"/>
<text text-anchor="middle" x="112.62" y="-255.12" font-family="Times New Roman,serif" font-size="14.00">&#39;#&#39;</text>
</g>
<!-- 0&#45;&gt;ACC_WS -->
<g id="edge29" class="edge">
<title>0&#45;&gt;ACC_WS</title>
<path fill="none" stroke="black" d="M24.83,-700.71C28.85,-743.74 39.92,-836.66 62,-858.67 93.57,-890.13 142.54,-900.67 183.75,-903.33"/>
<polygon fill="black" stroke="black" points="183.48,-906.82 193.64,-903.8 183.82,-899.82 183.48,-906.82"/>
<text text-anchor="middle" x="112.62" y="-903.12" font-family="Times New Roman,serif" font-size="14.00">&#39; &#39; or &#39;t&#39;</text>
</g>
<!-- 0&#45;&gt;ACC_EL -->
<g id="edge30" class="edge">
<title>0&#45;&gt;ACC_EL</title>
<path fill="none" stroke="black" d="M32.27,-698.53C38.86,-710.39 48.87,-724.65 62,-732.67 101.03,-756.5 152.29,-763.72 192.73,-765.12"/>
<polygon fill="black" stroke="black" points="192.5,-768.62 202.58,-765.34 192.66,-761.62 192.5,-768.62"/>
<text text-anchor="middle" x="112.62" y="-779.87" font-family="Times New Roman,serif" font-size="14.00">&#39;</text>
<text text-anchor="middle" x="112.62" y="-764.12" font-family="Times New Roman,serif" font-size="14.00">&#39;</text>
</g>
</g>
</svg>
